<svg xmlns="http://www.w3.org/2000/svg" viewBox="0 0 100 100">
  <defs>
    <linearGradient id="leafGradient" x1="0%" y1="0%" x2="100%" y2="100%">
      <stop offset="0%" stop-color="#81c784" />
      <stop offset="100%" stop-color="#2e7d32" />
    </linearGradient>
  </defs>
  <path d="M50 95 C 20 95 5 70 5 45 C 5 20 30 5 50 5 C 70 5 95 20 95 45 C 95 70 80 95 50 95 Z" fill="none" />
  <path d="M50 85 Q 15 80 15 40 Q 15 10 50 5 Q 85 10 85 40 Q 85 80 50 85 Z M 50 85 Q 50 45 50 5" fill="url(#leafGradient)" stroke="#1b5e20" stroke-width="2" />
  <path d="M50 5 Q 50 30 70 45" stroke="#1b5e20" stroke-width="2" fill="none" opacity="0.6" />
  <path d="M50 5 Q 50 30 30 45" stroke="#1b5e20" stroke-width="2" fill="none" opacity="0.6" />
</svg>
